<svg width="191" height="34" fill="none" xmlns="http://www.w3.org/2000/svg"><g clip-path="url('#clip0_5_8392')"><path d="M28.764 8.204c.02.108.056.215.056.323.003 4.473 0 8.947.008 13.42 0 .242-.091.358-.286.466-1.8 1.004-3.594 2.016-5.39 3.026-.097.055-.193.115-.29.172-.025-.143-.072-.285-.073-.428-.005-2.042-.003-4.084-.004-6.127 0-.132-.011-.263-.018-.42-.09.034-.138.046-.18.07-1.923 1.081-3.845 2.164-5.768 3.247l-.072-.021c0-2.136 0-4.271.005-6.407 0-.2.044-.4.068-.6.654-.365 1.31-.728 1.962-1.094 2.7-1.515 5.399-3.031 8.097-4.549.631-.355 1.257-.718 1.885-1.078Z" fill="#1F009D"/><path d="m16.747 21.932.073.021c-.026.148-.07.296-.074.445-.01.354-.003.71-.003 1.064 0 1.673 0 3.347-.002 5.02 0 .17.049.364-.146.477-1.882-1.06-3.764-2.122-5.647-3.18-1.622-.912-3.246-1.818-4.868-2.731-.456-.257-.904-.53-1.356-.795.002-.203.006-.406.006-.61V8.877c0-.114-.006-.23.004-.343.007-.08.038-.158.069-.277l.582.326c.893.5 1.788.996 2.68 1.497.882.495 1.762.995 2.642 1.492-.002 2.248-.006 4.496-.003 6.743 0 .107.051.214.079.32 1.885 1.062 3.77 2.124 5.657 3.183.095.053.205.077.307.115Z" fill="#6DCAFF"/><path d="M10.783 18.634c-.028-.107-.08-.213-.08-.32-.002-2.247.002-4.495.004-6.743 1.3-.718 2.603-1.434 3.902-2.156.666-.37 1.325-.75 1.987-1.126.134-.063.273-.119.403-.19 1.804-.993 3.61-1.985 5.408-2.988.24-.135.426-.155.68-.015 1.773.973 3.556 1.926 5.334 2.888.119.064.229.146.343.22-.628.36-1.254.723-1.885 1.078-2.698 1.518-5.397 3.033-8.097 4.549-.653.366-1.308.73-1.962 1.094-.14-.048-.291-.075-.42-.145-.873-.483-1.742-.976-2.613-1.466-.86-.483-1.719-.967-2.58-1.448-.114-.064-.239-.106-.365-.162-.093.375-.125 4.825-.06 6.93Z" fill="#5429FF"/><path d="M16.595 28.959c.194-.113.145-.307.145-.477.004-1.673.002-3.347.002-5.02 0-.354-.007-.71.004-1.064.005-.15.048-.297.073-.445l5.768-3.248c.042-.023.09-.035.18-.07.007.158.018.29.018.421.002 2.043 0 4.085.005 6.127 0 .143.047.285.073.428-1.15.644-2.3 1.287-3.448 1.932l-2.44 1.37c-.118.065-.24.145-.38.046Z" fill="#B9E5FF"/><path d="M16.942 8.29c-.662.375-1.321.756-1.986 1.125-1.3.722-2.601 1.438-3.903 2.156-.88-.497-1.76-.997-2.64-1.492-.893-.501-1.788-.998-2.682-1.497l-.582-.327c-.03.12-.061.198-.069.278-.01.114-.003.229-.003.343v12.768c0 .203-.004.406-.007.61-.022-.15-.065-.298-.065-.446-.004-4.396 0-8.793-.009-13.189 0-.322.107-.5.388-.649a449.305 449.305 0 0 0 5.24-2.83c.295-.162.518-.16.82.014 1.634.94 3.286 1.85 4.93 2.772.196.11.38.242.568.363Z" fill="#99DAFF"/><path d="M10.783 18.634c-.066-2.105-.034-6.556.06-6.93.125.055.25.098.364.162.861.48 1.72.965 2.58 1.448.87.49 1.74.982 2.614 1.466.128.07.279.097.419.145-.024.2-.067.4-.068.6-.005 2.135-.004 4.271-.005 6.406-.103-.037-.212-.062-.307-.115-1.887-1.058-3.772-2.12-5.658-3.182Z" fill="#2900CE"/></g><path d="m46.297 21.086.494 3.49c-1.22.368-2.371.553-3.455.553-1.606 0-2.767-.35-3.484-1.047-.696-.698-1.045-1.813-1.045-3.345v-7.852h-2.641V9.628h2.641V5.207h4.355v4.42h3.396v3.258h-3.396v7.067c0 .504.116.863.348 1.076.232.194.59.29 1.074.29.368 0 .939-.077 1.713-.232ZM55.831 9.366c.6 0 1.423.174 2.468.523l-.813 3.84c-.91-.214-1.567-.32-1.974-.32-.968 0-1.732.377-2.293 1.133-.561.737-.842 1.755-.842 3.054v7.154h-4.355V9.628h4.036v2.152c.813-1.61 2.07-2.414 3.773-2.414ZM68.347 9.628h4.355V24.75h-3.977v-1.599c-.91 1.396-2.371 2.094-4.384 2.094-1.78 0-3.116-.427-4.006-1.28-.87-.853-1.306-2.074-1.306-3.664V9.628h4.354v9.51c0 1.531.745 2.297 2.235 2.297 1.82 0 2.73-.96 2.73-2.88V9.629ZM82.317 21.551c.794 0 1.5-.135 2.12-.407.619-.29 1.354-.795 2.206-1.512l2.38 2.734c-1.993 1.92-4.267 2.879-6.822 2.879-2.477 0-4.45-.727-5.922-2.181-1.451-1.454-2.177-3.393-2.177-5.817 0-2.385.697-4.333 2.09-5.845 1.394-1.532 3.27-2.298 5.632-2.298 2.303 0 4.074.669 5.313 2.007 1.257 1.338 1.886 3.218 1.886 5.642 0 .543-.019 1.105-.058 1.687H78.311c.465 2.074 1.8 3.111 4.006 3.111Zm-.551-9.044c-1.761 0-2.884.96-3.368 2.879h6.474c-.213-1.92-1.248-2.88-3.106-2.88ZM97.686 7.097c-.561 0-.958.126-1.19.378-.232.233-.349.65-.349 1.251v.902h3.165v3.257h-3.165V24.75h-4.354V12.885h-2.526V9.628h2.526V8.552c0-3.335 1.684-5.003 5.051-5.003 1.045 0 2.148.175 3.31.524L99.399 7.3a7.261 7.261 0 0 0-1.713-.204ZM107.134 9.104c2.322 0 4.228.756 5.719 2.269 1.49 1.492 2.235 3.422 2.235 5.787 0 2.385-.745 4.333-2.235 5.846-1.491 1.492-3.397 2.239-5.719 2.239-2.342 0-4.258-.747-5.748-2.24-1.49-1.512-2.236-3.46-2.236-5.845 0-2.365.746-4.295 2.236-5.787 1.49-1.513 3.406-2.269 5.748-2.269Zm0 3.694c-1.065 0-1.926.397-2.584 1.192-.658.795-.987 1.852-.987 3.17 0 1.338.329 2.404.987 3.2.658.794 1.519 1.191 2.584 1.191 1.064 0 1.916-.397 2.554-1.192.658-.795.987-1.861.987-3.199 0-1.318-.329-2.375-.987-3.17-.658-.795-1.509-1.192-2.554-1.192ZM125.73 9.628h4.354V24.75h-3.977v-1.599c-.909 1.396-2.371 2.094-4.383 2.094-1.781 0-3.116-.427-4.007-1.28-.87-.853-1.306-2.074-1.306-3.664V9.628h4.355v9.51c0 1.531.745 2.297 2.235 2.297 1.819 0 2.729-.96 2.729-2.88V9.629ZM140.745 9.104c1.684 0 3 .475 3.948 1.425.968.95 1.452 2.24 1.452 3.868V24.75h-4.355V15.62c0-.873-.222-1.542-.667-2.007-.426-.485-1.046-.727-1.858-.727-.813 0-1.462.252-1.945.756-.484.504-.726 1.192-.726 2.065v9.044h-4.355V9.628h4.036v1.628c1.025-1.435 2.515-2.152 4.47-2.152ZM158.629 4.102h4.355V24.75h-4.036v-1.832c-1.064 1.532-2.641 2.298-4.731 2.298-1.955 0-3.561-.727-4.819-2.181-1.239-1.474-1.858-3.413-1.858-5.817 0-2.423.619-4.362 1.858-5.816 1.258-1.474 2.874-2.21 4.848-2.21 1.877 0 3.338.6 4.383 1.803V4.102Zm-3.28 17.42c1.006 0 1.829-.397 2.467-1.192.639-.795.958-1.832.958-3.112s-.319-2.307-.958-3.083c-.638-.794-1.451-1.192-2.438-1.192-1.026 0-1.858.388-2.497 1.163-.638.776-.958 1.813-.958 3.112 0 1.3.31 2.346.929 3.141.619.776 1.452 1.163 2.497 1.163ZM172.95 9.366c.6 0 1.422.174 2.467.523l-.813 3.84c-.909-.214-1.567-.32-1.974-.32-.967 0-1.732.377-2.293 1.133-.561.737-.842 1.755-.842 3.054v7.154h-4.354V9.628h4.035v2.152c.813-1.61 2.07-2.414 3.774-2.414ZM186.378 9.628h4.47l-5.747 16.635c-.504 1.493-1.191 2.56-2.062 3.199-.87.66-2.032.989-3.483.989-1.219 0-2.264-.146-3.135-.436l.725-3.229a9.305 9.305 0 0 0 1.829.175c1.065 0 1.81-.446 2.236-1.338l-5.69-15.995h4.586l1.162 3.519c.987 2.927 1.664 5.07 2.032 6.427.425-1.532 1.074-3.674 1.945-6.427l1.132-3.52Z" fill="#010202"/><defs><clipPath id="clip0_5_8392"><path fill="#fff" transform="translate(4.65 5)" d="M0 0h24.178v24.005H0z"/></clipPath></defs></svg>